REM DIRINDEX 1\2,1\3,1\4,1\5
REM DIRNAME cjc005,folder01,folder02,folder03,folder04
TITLE ""
FILE "P1Q_t_0712-0721.mp3" MP3
  TRACK 01 AUDIO
    TITLE "3:cjc005_3040"
    INDEX 01 00:00:00
  TRACK 02 AUDIO
    TITLE "0:"
    INDEX 01 00:00:72
  TRACK 03 AUDIO
    TITLE "4:cjc005_3041"
    INDEX 01 00:01:21
  TRACK 04 AUDIO
    TITLE "0:"
    INDEX 01 00:02:20
  TRACK 05 AUDIO
    TITLE "5:cjc005_3042"
    INDEX 01 00:02:43
  TRACK 06 AUDIO
    TITLE "0:"
    INDEX 01 00:05:24
  TRACK 07 AUDIO
    TITLE "3:cjc005_3043"
    INDEX 01 00:06:06
  TRACK 08 AUDIO
    TITLE "0:"
    INDEX 01 00:07:21
  TRACK 09 AUDIO
    TITLE "4:cjc005_3044"
    INDEX 01 00:07:47
  TRACK 10 AUDIO
    TITLE "0:"
    INDEX 01 00:08:56
  TRACK 11 AUDIO
    TITLE "5:cjc005_3045"
    INDEX 01 00:09:08
  TRACK 12 AUDIO
    TITLE "0:"
    INDEX 01 00:11:58
  TRACK 13 AUDIO
    TITLE "3:cjc005_3046"
    INDEX 01 00:12:30
  TRACK 14 AUDIO
    TITLE "0:"
    INDEX 01 00:13:37
  TRACK 15 AUDIO
    TITLE "4:cjc005_3047"
    INDEX 01 00:13:59
  TRACK 16 AUDIO
    TITLE "0:"
    INDEX 01 00:15:15
  TRACK 17 AUDIO
    TITLE "5:cjc005_3048"
    INDEX 01 00:15:38
  TRACK 18 AUDIO
    TITLE "0:"
    INDEX 01 00:20:08
  TRACK 19 AUDIO
    TITLE "3:cjc005_3049"
    INDEX 01 00:20:55
  TRACK 20 AUDIO
    TITLE "0:"
    INDEX 01 00:22:03
  TRACK 21 AUDIO
    TITLE "4:cjc005_3050"
    INDEX 01 00:22:27
  TRACK 22 AUDIO
    TITLE "0:"
    INDEX 01 00:23:36
  TRACK 23 AUDIO
    TITLE "5:cjc005_3051"
    INDEX 01 00:23:61
  TRACK 24 AUDIO
    TITLE "0:"
    INDEX 01 00:27:39
  TRACK 25 AUDIO
    TITLE "3:cjc005_3052"
    INDEX 01 00:28:15
  TRACK 26 AUDIO
    TITLE "0:"
    INDEX 01 00:29:29
  TRACK 27 AUDIO
    TITLE "4:cjc005_3053"
    INDEX 01 00:29:60
  TRACK 28 AUDIO
    TITLE "0:"
    INDEX 01 00:31:51
  TRACK 29 AUDIO
    TITLE "5:cjc005_3054"
    INDEX 01 00:31:73
  TRACK 30 AUDIO
    TITLE "0:"
    INDEX 01 00:35:74
  TRACK 31 AUDIO
    TITLE "3:cjc005_3055"
    INDEX 01 00:36:60
  TRACK 32 AUDIO
    TITLE "0:"
    INDEX 01 00:37:63
  TRACK 33 AUDIO
    TITLE "4:cjc005_3056"
    INDEX 01 00:38:14
  TRACK 34 AUDIO
    TITLE "0:"
    INDEX 01 00:39:27
  TRACK 35 AUDIO
    TITLE "5:cjc005_3057"
    INDEX 01 00:39:52
  TRACK 36 AUDIO
    TITLE "0:"
    INDEX 01 00:43:70
  TRACK 37 AUDIO
    TITLE "3:cjc005_3058"
    INDEX 01 00:44:50
  TRACK 38 AUDIO
    TITLE "0:"
    INDEX 01 00:46:02
  TRACK 39 AUDIO
    TITLE "4:cjc005_3059"
    INDEX 01 00:46:29
  TRACK 40 AUDIO
    TITLE "0:"
    INDEX 01 00:47:46
  TRACK 41 AUDIO
    TITLE "5:cjc005_3060"
    INDEX 01 00:47:66
  TRACK 42 AUDIO
    TITLE "0:"
    INDEX 01 00:51:48
  TRACK 43 AUDIO
    TITLE "3:cjc005_3061"
    INDEX 01 00:52:28
  TRACK 44 AUDIO
    TITLE "0:"
    INDEX 01 00:53:43
  TRACK 45 AUDIO
    TITLE "4:cjc005_3062"
    INDEX 01 00:53:70
  TRACK 46 AUDIO
    TITLE "0:"
    INDEX 01 00:55:08
  TRACK 47 AUDIO
    TITLE "5:cjc005_3063"
    INDEX 01 00:55:34
  TRACK 48 AUDIO
    TITLE "0:"
    INDEX 01 00:59:67
  TRACK 49 AUDIO
    TITLE "3:cjc005_3064"
    INDEX 01 01:00:41
  TRACK 50 AUDIO
    TITLE "0:"
    INDEX 01 01:01:70
  TRACK 51 AUDIO
    TITLE "4:cjc005_3065"
    INDEX 01 01:02:24
  TRACK 52 AUDIO
    TITLE "0:"
    INDEX 01 01:03:31
  TRACK 53 AUDIO
    TITLE "5:cjc005_3066"
    INDEX 01 01:03:55
  TRACK 54 AUDIO
    TITLE "0:"
    INDEX 01 01:07:47
  TRACK 55 AUDIO
    TITLE "3:cjc005_3067"
    INDEX 01 01:08:23
  TRACK 56 AUDIO
    TITLE "0:"
    INDEX 01 01:09:42
  TRACK 57 AUDIO
    TITLE "4:cjc005_3068"
    INDEX 01 01:09:67
  TRACK 58 AUDIO
    TITLE "0:"
    INDEX 01 01:10:71
  TRACK 59 AUDIO
    TITLE "5:cjc005_3069"
    INDEX 01 01:11:21
  TRACK 60 AUDIO
    TITLE "0:"
    INDEX 01 01:14:66
